{
  "accessors": [
    {
      "bufferView": 2,
      "componentType": 5126,
      "count": 20,
      "max": [
        5.268067836761475,
        -3.169687032699585,
        16.52796173095703
      ],
      "min": [
        3.169684886932373,
        -5.268071174621582,
        16.235597610473633
      ],
      "type": "VEC3"
    },
    {
      "bufferView": 2,
      "byteOffset": 240,
      "componentType": 5126,
      "count": 20,
      "max": [
        0.7968258857727051,
        0.6042089462280273,
        0.9985601305961609
      ],
      "min": [
        -0.6042100787162781,
        -0.796825110912323,
        -0.9985600113868713
      ],
      "type": "VEC3"
    },
    {
      "bufferView": 1,
      "componentType": 5126,
      "count": 20,
      "max": [
        0.9852970242500305,
        0.4898959994316101
      ],
      "min": [
        0.1645510047674179,
        0.014192000031471252
      ],
      "type": "VEC2"
    },
    {
      "bufferView": 0,
      "componentType": 5125,
      "count": 30,
      "type": "SCALAR"
    },
    {
      "bufferView": 2,
      "byteOffset": 480,
      "componentType": 5126,
      "count": 20,
      "max": [
        6.991145133972168,
        -0.12456999719142914,
        16.52796173095703
      ],
      "min": [
        5.004088878631592,
        -1.5327730178833008,
        16.235597610473633
      ],
      "type": "VEC3"
    },
    {
      "bufferView": 2,
      "byteOffset": 720,
      "componentType": 5126,
      "count": 20,
      "max": [
        0.9876881241798401,
        0.9571777582168579,
        0.9985601305961609
      ],
      "min": [
        -0.020454995334148407,
        -0.9997907876968384,
        -0.9985600113868713
      ],
      "type": "VEC3"
    },
    {
      "bufferView": 1,
      "byteOffset": 160,
      "componentType": 5126,
      "count": 20,
      "max": [
        0.992950975894928,
        0.5006030201911926
      ],
      "min": [
        0.06888200342655182,
        0.01092700008302927
      ],
      "type": "VEC2"
    },
    {
      "bufferView": 0,
      "byteOffset": 120,
      "componentType": 5125,
      "count": 30,
      "type": "SCALAR"
    },
    {
      "bufferView": 2,
      "byteOffset": 960,
      "componentType": 5126,
      "count": 20,
      "max": [
        6.445051193237305,
        3.575411081314087,
        16.52796173095703
      ],
      "min": [
        4.297208786010742,
        1.7318919897079468,
        16.235597610473633
      ],
      "type": "VEC3"
    },
    {
      "bufferView": 2,
      "byteOffset": 1200,
      "componentType": 5126,
      "count": 20,
      "max": [
        0.8910073041915894,
        0.944537341594696,
        0.9985600113868713
      ],
      "min": [
        -0.32840412855148315,
        -0.8208708167076111,
        -0.9985600113868713
      ],
      "type": "VEC3"
    },
    {
      "bufferView": 1,
      "byteOffset": 320,
      "componentType": 5126,
      "count": 20,
      "max": [
        1.4910420179367065,
        0.5013870000839233
      ],
      "min": [
        0.3956190049648285,
        -0.44111698865890503
      ],
      "type": "VEC2"
    },
    {
      "bufferView": 0,
      "byteOffset": 240,
      "componentType": 5125,
      "count": 30,
      "type": "SCALAR"
    },
    {
      "bufferView": 2,
      "byteOffset": 1440,
      "componentType": 5126,
      "count": 20,
      "max": [
        3.5754148960113525,
        6.44504976272583,
        16.52796173095703
      ],
      "min": [
        1.7318929433822632,
        4.297207832336426,
        16.235597610473633
      ],
      "type": "VEC3"
    },
    {
      "bufferView": 2,
      "byteOffset": 1680,
      "componentType": 5126,
      "count": 20,
      "max": [
        0.9445367455482483,
        0.8910057544708252,
        0.9985600113868713
      ],
      "min": [
        -0.8208695650100708,
        -0.3284059166908264,
        -0.9985600113868713
      ],
      "type": "VEC3"
    },
    {
      "bufferView": 1,
      "byteOffset": 480,
      "componentType": 5126,
      "count": 20,
      "max": [
        1.4872159957885742,
        0.5018180012702942
      ],
      "min": [
        -0.11507300287485123,
        -0.44111698865890503
      ],
      "type": "VEC2"
    },
    {
      "bufferView": 0,
      "byteOffset": 360,
      "componentType": 5125,
      "count": 30,
      "type": "SCALAR"
    },
    {
      "bufferView": 2,
      "byteOffset": 1920,
      "componentType": 5126,
      "count": 20,
      "max": [
        -0.12456899881362915,
        6.991145133972168,
        16.52796173095703
      ],
      "min": [
        -1.5327680110931396,
        5.004090785980225,
        16.235597610473633
      ],
      "type": "VEC3"
    },
    {
      "bufferView": 2,
      "byteOffset": 2160,
      "componentType": 5126,
      "count": 20,
      "max": [
        0.9571783542633057,
        0.9876885414123535,
        0.9985601305961609
      ],
      "min": [
        -0.9997907876968384,
        -0.020452994853258133,
        -0.9985600113868713
      ],
      "type": "VEC3"
    },
    {
      "bufferView": 1,
      "byteOffset": 640,
      "componentType": 5126,
      "count": 20,
      "max": [
        0.981469988822937,
        0.48995399475097656
      ],
      "min": [
        0.1301099956035614,
        0.014192000031471252
      ],
      "type": "VEC2"
    },
    {
      "bufferView": 0,
      "byteOffset": 480,
      "componentType": 5125,
      "count": 30,
      "type": "SCALAR"
    },
    {
      "bufferView": 2,
      "byteOffset": 2400,
      "componentType": 5126,
      "count": 20,
      "max": [
        -3.169684886932373,
        5.268071174621582,
        16.52796173095703
      ],
      "min": [
        -5.268067836761475,
        3.169687032699585,
        16.235597610473633
      ],
      "type": "VEC3"
    },
    {
      "bufferView": 2,
      "byteOffset": 2640,
      "componentType": 5126,
      "count": 20,
      "max": [
        0.6042100787162781,
        0.796825110912323,
        0.9985601305961609
      ],
      "min": [
        -0.7968258857727051,
        -0.6042089462280273,
        -0.9985600113868713
      ],
      "type": "VEC3"
    },
    {
      "bufferView": 1,
      "byteOffset": 800,
      "componentType": 5126,
      "count": 20,
      "max": [
        1.4833890199661255,
        0.5016899704933167
      ],
      "min": [
        -0.07297900319099426,
        -0.4413039982318878
      ],
      "type": "VEC2"
    },
    {
      "bufferView": 0,
      "byteOffset": 600,
      "componentType": 5125,
      "count": 30,
      "type": "SCALAR"
    },
    {
      "bufferView": 2,
      "byteOffset": 2880,
      "componentType": 5126,
      "count": 20,
      "max": [
        -5.004088878631592,
        1.5327730178833008,
        16.52796173095703
      ],
      "min": [
        -6.991145133972168,
        0.12456999719142914,
        16.235597610473633
      ],
      "type": "VEC3"
    },
    {
      "bufferView": 2,
      "byteOffset": 3120,
      "componentType": 5126,
      "count": 20,
      "max": [
        0.020454995334148407,
        0.9997907876968384,
        0.9985601305961609
      ],
      "min": [
        -0.9876881241798401,
        -0.9571777582168579,
        -0.9985600113868713
      ],
      "type": "VEC3"
    },
    {
      "bufferView": 1,
      "byteOffset": 960,
      "componentType": 5126,
      "count": 20,
      "max": [
        1.9847849607467651,
        0.5358999967575073
      ],
      "min": [
        -0.5053790211677551,
        -0.9032490253448486
      ],
      "type": "VEC2"
    },
    {
      "bufferView": 0,
      "byteOffset": 720,
      "componentType": 5125,
      "count": 30,
      "type": "SCALAR"
    },
    {
      "bufferView": 2,
      "byteOffset": 3360,
      "componentType": 5126,
      "count": 20,
      "max": [
        -4.297208786010742,
        -1.7318919897079468,
        16.52796173095703
      ],
      "min": [
        -6.445051193237305,
        -3.575411081314087,
        16.235597610473633
      ],
      "type": "VEC3"
    },
    {
      "bufferView": 2,
      "byteOffset": 3600,
      "componentType": 5126,
      "count": 20,
      "max": [
        0.32840412855148315,
        0.8208708167076111,
        0.9985600113868713
      ],
      "min": [
        -0.8910073041915894,
        -0.944537341594696,
        -0.9985600113868713
      ],
      "type": "VEC3"
    },
    {
      "bufferView": 1,
      "byteOffset": 1120,
      "componentType": 5126,
      "count": 20,
      "max": [
        2.502476930618286,
        0.558135986328125
      ],
      "min": [
        -0.921055018901825,
        -1.3688650131225586
      ],
      "type": "VEC2"
    },
    {
      "bufferView": 0,
      "byteOffset": 840,
      "componentType": 5125,
      "count": 30,
      "type": "SCALAR"
    },
    {
      "bufferView": 2,
      "byteOffset": 3840,
      "componentType": 5126,
      "count": 57,
      "max": [
        4.980377197265625,
        4.980377197265625,
        24.55811882019043
      ],
      "min": [
        -4.980377197265625,
        -4.980378150939941,
        17.271820068359375
      ],
      "type": "VEC3"
    },
    {
      "bufferView": 2,
      "byteOffset": 4524,
      "componentType": 5126,
      "count": 57,
      "max": [
        0.9854863286018372,
        0.9854862093925476,
        1.0
      ],
      "min": [
        -0.9854862093925476,
        -0.9854862093925476,
        0.16975505650043488
      ],
      "type": "VEC3"
    },
    {
      "bufferView": 1,
      "byteOffset": 1280,
      "componentType": 5126,
      "count": 57,
      "max": [
        0.6530249714851379,
        0.7842659950256348
      ],
      "min": [
        0.19653600454330444,
        0.32777899503707886
      ],
      "type": "VEC2"
    },
    {
      "bufferView": 0,
      "byteOffset": 960,
      "componentType": 5125,
      "count": 288,
      "type": "SCALAR"
    },
    {
      "bufferView": 2,
      "byteOffset": 5208,
      "componentType": 5126,
      "count": 52,
      "max": [
        -3.3243889808654785,
        7.314948081970215,
        13.259782791137695
      ],
      "min": [
        -7.377163887023926,
        3.428788900375366,
        0.011447000317275524
      ],
      "type": "VEC3"
    },
    {
      "bufferView": 2,
      "byteOffset": 5832,
      "componentType": 5126,
      "count": 52,
      "max": [
        0.727755069732666,
        0.7315840721130371,
        0.9037638902664185
      ],
      "min": [
        -0.727755069732666,
        -0.7298021912574768,
        -0.8919211030006409
      ],
      "type": "VEC3"
    },
    {
      "bufferView": 1,
      "byteOffset": 1736,
      "componentType": 5126,
      "count": 52,
      "max": [
        0.9284809827804565,
        1.0
      ],
      "min": [
        0.0,
        0.0
      ],
      "type": "VEC2"
    },
    {
      "bufferView": 0,
      "byteOffset": 2112,
      "componentType": 5125,
      "count": 84,
      "type": "SCALAR"
    },
    {
      "bufferView": 2,
      "byteOffset": 6456,
      "componentType": 5126,
      "count": 101,
      "max": [
        4.078703880310059,
        4.021434783935547,
        6.26133918762207
      ],
      "min": [
        -4.078704833984375,
        -4.1359758377075195,
        2.84920597076416
      ],
      "type": "VEC3"
    },
    {
      "bufferView": 2,
      "byteOffset": 7668,
      "componentType": 5126,
      "count": 101,
      "max": [
        0.8178101778030396,
        0.8178101778030396,
        1.0
      ],
      "min": [
        -0.8178101778030396,
        -0.8178101778030396,
        0.5754870772361755
      ],
      "type": "VEC3"
    },
    {
      "bufferView": 1,
      "byteOffset": 2152,
      "componentType": 5126,
      "count": 101,
      "max": [
        0.476188987493515,
        0.5363979935646057
      ],
      "min": [
        0.41711699962615967,
        0.4773249924182892
      ],
      "type": "VEC2"
    },
    {
      "bufferView": 0,
      "byteOffset": 2448,
      "componentType": 5125,
      "count": 540,
      "type": "SCALAR"
    },
    {
      "bufferView": 2,
      "byteOffset": 8880,
      "componentType": 5126,
      "count": 52,
      "max": [
        -4.31709098815918,
        -2.071540117263794,
        13.259782791137695
      ],
      "min": [
        -9.186429977416992,
        -4.671453952789307,
        0.011447000317275524
      ],
      "type": "VEC3"
    },
    {
      "bufferView": 2,
      "byteOffset": 9504,
      "componentType": 5126,
      "count": 52,
      "max": [
        0.8771591186523438,
        0.8771591186523438,
        0.9037637114524841
      ],
      "min": [
        -0.8771591186523438,
        -0.8771591186523438,
        -0.8919207453727722
      ],
      "type": "VEC3"
    },
    {
      "bufferView": 1,
      "byteOffset": 2960,
      "componentType": 5126,
      "count": 52,
      "max": [
        1.2801779508590698,
        1.2332019805908203
      ],
      "min": [
        -0.21647800505161285,
        -0.3017430007457733
      ],
      "type": "VEC2"
    },
    {
      "bufferView": 0,
      "byteOffset": 4608,
      "componentType": 5125,
      "count": 84,
      "type": "SCALAR"
    },
    {
      "bufferView": 2,
      "byteOffset": 10128,
      "componentType": 5126,
      "count": 52,
      "max": [
        1.6440340280532837,
        -4.7828049659729,
        13.259782791137695
      ],
      "min": [
        0.6159150004386902,
        -10.0166654586792,
        0.011447000317275524
      ],
      "type": "VEC3"
    },
    {
      "bufferView": 2,
      "byteOffset": 10752,
      "componentType": 5126,
      "count": 52,
      "max": [
        0.9826176166534424,
        0.9826176166534424,
        0.903764009475708
      ],
      "min": [
        -0.9826176166534424,
        -0.9826176166534424,
        -0.8919211030006409
      ],
      "type": "VEC3"
    },
    {
      "bufferView": 1,
      "byteOffset": 3376,
      "componentType": 5126,
      "count": 52,
      "max": [
        1.303138017654419,
        1.2525169849395752
      ],
      "min": [
        0.292481005191803,
        -0.3017430007457733
      ],
      "type": "VEC2"
    },
    {
      "bufferView": 0,
      "byteOffset": 4944,
      "componentType": 5125,
      "count": 84,
      "type": "SCALAR"
    },
    {
      "bufferView": 2,
      "byteOffset": 11376,
      "componentType": 5126,
      "count": 52,
      "max": [
        10.022337913513184,
        -0.7650920152664185,
        13.259782791137695
      ],
      "min": [
        4.763060092926025,
        -1.5613089799880981,
        0.011447000317275524
      ],
      "type": "VEC3"
    },
    {
      "bufferView": 2,
      "byteOffset": 12000,
      "componentType": 5126,
      "count": 52,
      "max": [
        0.9918911457061768,
        0.9918911457061768,
        0.9037637114524841
      ],
      "min": [
        -0.9918911457061768,
        -0.9918911457061768,
        -0.8919207453727722
      ],
      "type": "VEC3"
    },
    {
      "bufferView": 1,
      "byteOffset": 3792,
      "componentType": 5126,
      "count": 52,
      "max": [
        0.978073000907898,
        0.9985349774360657
      ],
      "min": [
        0.24108600616455078,
        0.0
      ],
      "type": "VEC2"
    },
    {
      "bufferView": 0,
      "byteOffset": 5280,
      "componentType": 5125,
      "count": 84,
      "type": "SCALAR"
    },
    {
      "bufferView": 2,
      "byteOffset": 12624,
      "componentType": 5126,
      "count": 52,
      "max": [
        4.591862201690674,
        9.218729972839355,
        13.259785652160645
      ],
      "min": [
        2.2048540115356445,
        4.251823902130127,
        0.011447000317275524
      ],
      "type": "VEC3"
    },
    {
      "bufferView": 2,
      "byteOffset": 13248,
      "componentType": 5126,
      "count": 52,
      "max": [
        0.9040712118148804,
        0.9040712118148804,
        0.9037627577781677
      ],
      "min": [
        -0.9040712118148804,
        -0.9040725231170654,
        -0.8919205069541931
      ],
      "type": "VEC3"
    },
    {
      "bufferView": 1,
      "byteOffset": 4208,
      "componentType": 5126,
      "count": 52,
      "max": [
        0.9629899859428406,
        1.0
      ],
      "min": [
        0.0,
        0.2575480043888092
      ],
      "type": "VEC2"
    },
    {
      "bufferView": 0,
      "byteOffset": 5616,
      "componentType": 5125,
      "count": 84,
      "type": "SCALAR"
    },
    {
      "bufferView": 2,
      "byteOffset": 13872,
      "componentType": 5126,
      "count": 101,
      "max": [
        3.9888839721679688,
        3.931615114212036,
        6.324538230895996
      ],
      "min": [
        -3.9888839721679688,
        -4.046154975891113,
        2.9590320587158203
      ],
      "type": "VEC3"
    },
    {
      "bufferView": 2,
      "byteOffset": 15084,
      "componentType": 5126,
      "count": 101,
      "max": [
        0.8178411722183228,
        0.8178411722183228,
        -0.5754429697990417
      ],
      "min": [
        -0.8178415298461914,
        -0.8178411722183228,
        -1.0
      ],
      "type": "VEC3"
    },
    {
      "bufferView": 1,
      "byteOffset": 4624,
      "componentType": 5126,
      "count": 101,
      "max": [
        0.476188987493515,
        0.5363979935646057
      ],
      "min": [
        0.41711699962615967,
        0.4773249924182892
      ],
      "type": "VEC2"
    },
    {
      "bufferView": 0,
      "byteOffset": 5952,
      "componentType": 5125,
      "count": 540,
      "type": "SCALAR"
    },
    {
      "bufferView": 2,
      "byteOffset": 16296,
      "componentType": 5126,
      "count": 20,
      "max": [
        -1.7318929433822632,
        -4.297207832336426,
        16.52796173095703
      ],
      "min": [
        -3.5754148960113525,
        -6.44504976272583,
        16.235597610473633
      ],
      "type": "VEC3"
    },
    {
      "bufferView": 2,
      "byteOffset": 16536,
      "componentType": 5126,
      "count": 20,
      "max": [
        0.8208695650100708,
        0.3284059166908264,
        0.9985600113868713
      ],
      "min": [
        -0.9445367455482483,
        -0.8910057544708252,
        -0.9985600113868713
      ],
      "type": "VEC3"
    },
    {
      "bufferView": 1,
      "byteOffset": 5432,
      "componentType": 5126,
      "count": 20,
      "max": [
        3.0275890827178955,
        0.5705680251121521
      ],
      "min": [
        -1.333752989768982,
        -1.844491958618164
      ],
      "type": "VEC2"
    },
    {
      "bufferView": 0,
      "byteOffset": 8112,
      "componentType": 5125,
      "count": 30,
      "type": "SCALAR"
    },
    {
      "bufferView": 2,
      "byteOffset": 16776,
      "componentType": 5126,
      "count": 20,
      "max": [
        1.5327680110931396,
        -5.004090785980225,
        16.52796173095703
      ],
      "min": [
        0.12456899881362915,
        -6.991145133972168,
        16.235597610473633
      ],
      "type": "VEC3"
    },
    {
      "bufferView": 2,
      "byteOffset": 17016,
      "componentType": 5126,
      "count": 20,
      "max": [
        0.9997907876968384,
        0.020452994853258133,
        0.9985600113868713
      ],
      "min": [
        -0.9571783542633057,
        -0.9876885414123535,
        -0.9985600113868713
      ],
      "type": "VEC3"
    },
    {
      "bufferView": 1,
      "byteOffset": 5592,
      "componentType": 5126,
      "count": 20,
      "max": [
        0.9891240000724792,
        0.48988300561904907
      ],
      "min": [
        0.15307000279426575,
        0.014379999600350857
      ],
      "type": "VEC2"
    },
    {
      "bufferView": 0,
      "byteOffset": 8232,
      "componentType": 5125,
      "count": 30,
      "type": "SCALAR"
    },
    {
      "bufferView": 2,
      "byteOffset": 17256,
      "componentType": 5126,
      "count": 414,
      "max": [
        8.38198184967041,
        9.072131156921387,
        16.275623321533203
      ],
      "min": [
        -9.077820777893066,
        -8.301199913024902,
        14.426761627197266
      ],
      "type": "VEC3"
    },
    {
      "bufferView": 2,
      "byteOffset": 22224,
      "componentType": 5126,
      "count": 414,
      "max": [
        0.9833328723907471,
        0.983332633972168,
        1.0
      ],
      "min": [
        -0.983332633972168,
        -0.9833328723907471,
        -1.0
      ],
      "type": "VEC3"
    },
    {
      "bufferView": 1,
      "byteOffset": 5752,
      "componentType": 5126,
      "count": 414,
      "max": [
        0.9600830078125,
        0.9045550227165222
      ],
      "min": [
        0.0,
        0.4982540011405945
      ],
      "type": "VEC2"
    },
    {
      "bufferView": 0,
      "byteOffset": 8352,
      "componentType": 5125,
      "count": 1728,
      "type": "SCALAR"
    },
    {
      "bufferView": 2,
      "byteOffset": 27192,
      "componentType": 5126,
      "count": 668,
      "max": [
        -2.6093909740448,
        -6.274496078491211,
        14.739494323730469
      ],
      "min": [
        -4.908886909484863,
        -8.57399845123291,
        7.6786041259765625
      ],
      "type": "VEC3"
    },
    {
      "bufferView": 2,
      "byteOffset": 35208,
      "componentType": 5126,
      "count": 668,
      "max": [
        0.9999943375587463,
        0.9999943375587463,
        1.0
      ],
      "min": [
        -0.9999943375587463,
        -0.9999943375587463,
        -1.0
      ],
      "type": "VEC3"
    },
    {
      "bufferView": 1,
      "byteOffset": 9064,
      "componentType": 5126,
      "count": 668,
      "max": [
        0.9939889907836914,
        1.0
      ],
      "min": [
        0.0,
        0.0
      ],
      "type": "VEC2"
    },
    {
      "bufferView": 0,
      "byteOffset": 15264,
      "componentType": 5125,
      "count": 1200,
      "type": "SCALAR"
    },
    {
      "bufferView": 2,
      "byteOffset": 43224,
      "componentType": 5126,
      "count": 2684,
      "max": [
        8.55482006072998,
        9.365659713745117,
        14.739495277404785
      ],
      "min": [
        -9.37226676940918,
        -7.019123077392578,
        7.6786041259765625
      ],
      "type": "VEC3"
    },
    {
      "bufferView": 2,
      "byteOffset": 75432,
      "componentType": 5126,
      "count": 2684,
      "max": [
        0.9999944567680359,
        0.9999943375587463,
        1.0
      ],
      "min": [
        -0.9999944567680359,
        -0.9999943375587463,
        -1.0
      ],
      "type": "VEC3"
    },
    {
      "bufferView": 1,
      "byteOffset": 14408,
      "componentType": 5126,
      "count": 2684,
      "max": [
        0.9939889907836914,
        1.0
      ],
      "min": [
        0.0,
        0.0
      ],
      "type": "VEC2"
    },
    {
      "bufferView": 0,
      "byteOffset": 20064,
      "componentType": 5125,
      "count": 4800,
      "type": "SCALAR"
    },
    {
      "bufferView": 2,
      "byteOffset": 107640,
      "componentType": 5126,
      "count": 1062,
      "max": [
        5.582927227020264,
        5.49033784866333,
        15.572962760925293
      ],
      "min": [
        -5.58292818069458,
        -5.674418926239014,
        6.101753234863281
      ],
      "type": "VEC3"
    },
    {
      "bufferView": 2,
      "byteOffset": 120384,
      "componentType": 5126,
      "count": 1062,
      "max": [
        0.9954766631126404,
        0.9994363784790039,
        1.0
      ],
      "min": [
        -0.9994363784790039,
        -0.9957807660102844,
        -1.0
      ],
      "type": "VEC3"
    },
    {
      "bufferView": 1,
      "byteOffset": 35880,
      "componentType": 5126,
      "count": 1062,
      "max": [
        0.9957420229911804,
        0.7939900159835815
      ],
      "min": [
        0.0025130000431090593,
        0.25674599409103394
      ],
      "type": "VEC2"
    },
    {
      "bufferView": 0,
      "byteOffset": 39264,
      "componentType": 5125,
      "count": 2520,
      "type": "SCALAR"
    },
    {
      "bufferView": 2,
      "byteOffset": 133128,
      "componentType": 5126,
      "count": 168,
      "max": [
        6.524104118347168,
        7.156044960021973,
        12.744449615478516
      ],
      "min": [
        -7.186161041259766,
        -6.499151229858398,
        11.101385116577148
      ],
      "type": "VEC3"
    },
    {
      "bufferView": 2,
      "byteOffset": 135144,
      "componentType": 5126,
      "count": 168,
      "max": [
        0.9882121086120605,
        0.9882121086120605,
        1.0
      ],
      "min": [
        -0.9882121086120605,
        -0.9882121086120605,
        -1.0
      ],
      "type": "VEC3"
    },
    {
      "bufferView": 1,
      "byteOffset": 44376,
      "componentType": 5126,
      "count": 168,
      "max": [
        0.8907240033149719,
        0.9789000153541565
      ],
      "min": [
        0.0,
        0.7763739824295044
      ],
      "type": "VEC2"
    },
    {
      "bufferView": 0,
      "byteOffset": 49344,
      "componentType": 5125,
      "count": 252,
      "type": "SCALAR"
    },
    {
      "bufferView": 2,
      "byteOffset": 137160,
      "componentType": 5126,
      "count": 2266,
      "max": [
        5.374807834625244,
        5.374807834625244,
        17.283092498779297
      ],
      "min": [
        -5.374810218811035,
        -5.374811172485352,
        15.480461120605469
      ],
      "type": "VEC3"
    },
    {
      "bufferView": 2,
      "byteOffset": 164352,
      "componentType": 5126,
      "count": 2266,
      "max": [
        1.0,
        1.0,
        1.0
      ],
      "min": [
        -1.0,
        -1.0,
        -1.0
      ],
      "type": "VEC3"
    },
    {
      "bufferView": 1,
      "byteOffset": 45720,
      "componentType": 5126,
      "count": 2266,
      "max": [
        0.9808449745178223,
        0.5667480230331421
      ],
      "min": [
        0.013454999774694443,
        0.4236980080604553
      ],
      "type": "VEC2"
    },
    {
      "bufferView": 0,
      "byteOffset": 50352,
      "componentType": 5125,
      "count": 3594,
      "type": "SCALAR"
    },
    {
      "bufferView": 2,
      "byteOffset": 191544,
      "componentType": 5126,
      "count": 121,
      "max": [
        2.7109289169311523,
        2.7109289169311523,
        15.6049222946167
      ],
      "min": [
        -2.7109289169311523,
        -2.7109289169311523,
        15.6049222946167
      ],
      "type": "VEC3"
    },
    {
      "bufferView": 2,
      "byteOffset": 192996,
      "componentType": 5126,
      "count": 121,
      "max": [
        0.0,
        -0.0,
        1.0
      ],
      "min": [
        0.0,
        -0.0,
        1.0
      ],
      "type": "VEC3"
    },
    {
      "bufferView": 1,
      "byteOffset": 63848,
      "componentType": 5126,
      "count": 121,
      "max": [
        1.0,
        1.0
      ],
      "min": [
        0.0,
        0.0
      ],
      "type": "VEC2"
    },
    {
      "bufferView": 0,
      "byteOffset": 64728,
      "componentType": 5125,
      "count": 1200,
      "type": "SCALAR"
    },
    {
      "bufferView": 2,
      "byteOffset": 194448,
      "componentType": 5126,
      "count": 2579,
      "max": [
        7.010561943054199,
        7.010560989379883,
        24.64008331298828
      ],
      "min": [
        -7.010561943054199,
        -7.010560989379883,
        15.352458000183105
      ],
      "type": "VEC3"
    },
    {
      "bufferView": 2,
      "byteOffset": 225396,
      "componentType": 5126,
      "count": 2579,
      "max": [
        1.0,
        1.0,
        0.9999998807907104
      ],
      "min": [
        -1.0,
        -1.0,
        -1.0
      ],
      "type": "VEC3"
    },
    {
      "bufferView": 1,
      "byteOffset": 64816,
      "componentType": 5126,
      "count": 2579,
      "max": [
        3.0275890827178955,
        0.7842659950256348
      ],
      "min": [
        -1.333752989768982,
        -1.844491958618164
      ],
      "type": "VEC2"
    },
    {
      "bufferView": 0,
      "byteOffset": 69528,
      "componentType": 5125,
      "count": 4182,
      "type": "SCALAR"
    },
    {
      "bufferView": 2,
      "byteOffset": 256344,
      "componentType": 5126,
      "count": 4248,
      "max": [
        10.053079605102539,
        9.466197967529297,
        16.275623321533203
      ],
      "min": [
        -9.472804069519043,
        -10.054278373718262,
        -0.0037700000684708357
      ],
      "type": "VEC3"
    },
    {
      "bufferView": 2,
      "byteOffset": 307320,
      "componentType": 5126,
      "count": 4248,
      "max": [
        0.9999943375587463,
        0.9999943375587463,
        1.0
      ],
      "min": [
        -0.9999943375587463,
        -0.9999943375587463,
        -1.0
      ],
      "type": "VEC3"
    },
    {
      "bufferView": 1,
      "byteOffset": 85448,
      "componentType": 5126,
      "count": 4248,
      "max": [
        1.303138017654419,
        1.2525169849395752
      ],
      "min": [
        -0.21647800505161285,
        -0.3017430007457733
      ],
      "type": "VEC2"
    },
    {
      "bufferView": 0,
      "byteOffset": 86256,
      "componentType": 5125,
      "count": 7680,
      "type": "SCALAR"
    },
    {
      "bufferView": 2,
      "byteOffset": 358296,
      "componentType": 5126,
      "count": 1072,
      "max": [
        5.729441165924072,
        5.63686990737915,
        15.572977066040039
      ],
      "min": [
        -5.729461193084717,
        -5.820931911468506,
        5.948861122131348
      ],
      "type": "VEC3"
    },
    {
      "bufferView": 2,
      "byteOffset": 371160,
      "componentType": 5126,
      "count": 1072,
      "max": [
        0.9999213814735413,
        0.9973697662353516,
        0.9980451464653015
      ],
      "min": [
        -0.9971420168876648,
        -0.9999213814735413,
        -0.9950976371765137
      ],
      "type": "VEC3"
    },
    {
      "bufferView": 1,
      "byteOffset": 119432,
      "componentType": 5126,
      "count": 1072,
      "max": [
        0.9957420229911804,
        0.7939900159835815
      ],
      "min": [
        0.0025130000431090593,
        0.25674599409103394
      ],
      "type": "VEC2"
    },
    {
      "bufferView": 0,
      "byteOffset": 116976,
      "componentType": 5125,
      "count": 2520,
      "type": "SCALAR"
    }
  ],
  "asset": {
    "extras": {
      "author": "Jesús Lissen (https://sketchfab.com/jesus.lissen98)",
      "license": "CC-BY-4.0 (http://creativecommons.org/licenses/by/4.0/)",
      "source": "https://sketchfab.com/3d-models/nave-trunks-244fd27ff2ee4bc2b1bad2571acecf8a",
      "title": "Nave Trunks"
    },
    "generator": "Sketchfab-12.68.0",
    "version": "2.0"
  },
  "bufferViews": [
    {
      "buffer": 0,
      "byteLength": 127056,
      "name": "floatBufferViews",
      "target": 34963
    },
    {
      "buffer": 0,
      "byteLength": 128008,
      "byteOffset": 127056,
      "byteStride": 8,
      "name": "floatBufferViews",
      "target": 34962
    },
    {
      "buffer": 0,
      "byteLength": 384024,
      "byteOffset": 255064,
      "byteStride": 12,
      "name": "floatBufferViews",
      "target": 34962
    }
  ],
  "buffers": [
    {
      "byteLength": 639088,
      "uri": "scene.bin"
    }
  ],
  "images": [
    {
      "uri": "textures/lambert10SG_baseColor.jpeg"
    },
    {
      "uri": "textures/lambert19SG_baseColor.jpeg"
    },
    {
      "uri": "textures/lambert23SG_baseColor.jpeg"
    },
    {
      "uri": "textures/lambert25SG_baseColor.jpeg"
    },
    {
      "uri": "textures/lambert26SG_baseColor.jpeg"
    }
  ],
  "materials": [
    {
      "doubleSided": true,
      "name": "lambert10SG",
      "pbrMetallicRoughness": {
        "baseColorTexture": {
          "index": 0
        },
        "metallicFactor": 0.0,
        "roughnessFactor": 0.6
      }
    },
    {
      "doubleSided": true,
      "name": "lambert11SG",
      "pbrMetallicRoughness": {
        "baseColorTexture": {
          "index": 0
        },
        "metallicFactor": 0.0,
        "roughnessFactor": 0.6
      }
    },
    {
      "doubleSided": true,
      "name": "lambert12SG",
      "pbrMetallicRoughness": {
        "baseColorTexture": {
          "index": 0
        },
        "metallicFactor": 0.0,
        "roughnessFactor": 0.6
      }
    },
    {
      "doubleSided": true,
      "name": "lambert13SG",
      "pbrMetallicRoughness": {
        "baseColorTexture": {
          "index": 0
        },
        "metallicFactor": 0.0,
        "roughnessFactor": 0.6
      }
    },
    {
      "doubleSided": true,
      "name": "lambert14SG",
      "pbrMetallicRoughness": {
        "baseColorTexture": {
          "index": 0
        },
        "metallicFactor": 0.0,
        "roughnessFactor": 0.6
      }
    },
    {
      "doubleSided": true,
      "name": "lambert15SG",
      "pbrMetallicRoughness": {
        "baseColorTexture": {
          "index": 0
        },
        "metallicFactor": 0.0,
        "roughnessFactor": 0.6
      }
    },
    {
      "doubleSided": true,
      "name": "lambert16SG",
      "pbrMetallicRoughness": {
        "baseColorTexture": {
          "index": 0
        },
        "metallicFactor": 0.0,
        "roughnessFactor": 0.6
      }
    },
    {
      "doubleSided": true,
      "name": "lambert17SG",
      "pbrMetallicRoughness": {
        "baseColorTexture": {
          "index": 0
        },
        "metallicFactor": 0.0,
        "roughnessFactor": 0.6
      }
    },
    {
      "doubleSided": true,
      "name": "lambert18SG",
      "pbrMetallicRoughness": {
        "baseColorTexture": {
          "index": 0
        },
        "metallicFactor": 0.0,
        "roughnessFactor": 0.6
      }
    },
    {
      "doubleSided": true,
      "name": "lambert19SG",
      "pbrMetallicRoughness": {
        "baseColorTexture": {
          "index": 1
        },
        "metallicFactor": 0.0,
        "roughnessFactor": 0.6
      }
    },
    {
      "doubleSided": true,
      "name": "lambert22SG",
      "pbrMetallicRoughness": {
        "baseColorTexture": {
          "index": 1
        },
        "metallicFactor": 0.0,
        "roughnessFactor": 0.6
      }
    },
    {
      "doubleSided": true,
      "name": "lambert23SG",
      "pbrMetallicRoughness": {
        "baseColorTexture": {
          "index": 2
        },
        "metallicFactor": 0.0,
        "roughnessFactor": 0.6
      }
    },
    {
      "doubleSided": true,
      "name": "lambert24SG",
      "pbrMetallicRoughness": {
        "baseColorTexture": {
          "index": 0
        },
        "metallicFactor": 0.0,
        "roughnessFactor": 0.6
      }
    },
    {
      "doubleSided": true,
      "name": "lambert25SG",
      "pbrMetallicRoughness": {
        "baseColorTexture": {
          "index": 3
        },
        "metallicFactor": 0.0,
        "roughnessFactor": 0.6
      }
    },
    {
      "alphaMode": "BLEND",
      "doubleSided": true,
      "name": "lambert26SG",
      "pbrMetallicRoughness": {
        "baseColorFactor": [
          1.0,
          1.0,
          1.0,
          0.6198484940962358
        ],
        "baseColorTexture": {
          "index": 4
        },
        "metallicFactor": 0.0,
        "roughnessFactor": 0.6
      }
    },
    {
      "doubleSided": true,
      "name": "lambert27SG",
      "pbrMetallicRoughness": {
        "baseColorFactor": [
          0.95,
          0.95,
          0.95,
          1.0
        ],
        "metallicFactor": 0.0,
        "roughnessFactor": 0.6
      }
    },
    {
      "name": "lambert28SG",
      "pbrMetallicRoughness": {
        "baseColorFactor": [
          0.0,
          0.0,
          0.0,
          1.0
        ],
        "metallicFactor": 0.0,
        "roughnessFactor": 0.6
      }
    },
    {
      "doubleSided": true,
      "name": "lambert2SG",
      "pbrMetallicRoughness": {
        "baseColorTexture": {
          "index": 0
        },
        "metallicFactor": 0.0,
        "roughnessFactor": 0.6
      }
    },
    {
      "name": "lambert30SG",
      "pbrMetallicRoughness": {
        "baseColorFactor": [
          0.0,
          0.0,
          0.0,
          1.0
        ],
        "metallicFactor": 0.0,
        "roughnessFactor": 0.6
      }
    },
    {
      "name": "lambert31SG",
      "pbrMetallicRoughness": {
        "baseColorFactor": [
          0.0,
          0.0,
          0.0,
          1.0
        ],
        "metallicFactor": 0.0,
        "roughnessFactor": 0.6
      }
    },
    {
      "doubleSided": true,
      "name": "lambert32SG",
      "pbrMetallicRoughness": {
        "baseColorTexture": {
          "index": 0
        },
        "metallicFactor": 0.0,
        "roughnessFactor": 0.6
      }
    },
    {
      "doubleSided": true,
      "name": "lambert3SG",
      "pbrMetallicRoughness": {
        "baseColorTexture": {
          "index": 0
        },
        "metallicFactor": 0.0,
        "roughnessFactor": 0.6
      }
    },
    {
      "doubleSided": true,
      "name": "lambert4SG",
      "pbrMetallicRoughness": {
        "baseColorTexture": {
          "index": 0
        },
        "metallicFactor": 0.0,
        "roughnessFactor": 0.6
      }
    },
    {
      "doubleSided": true,
      "name": "lambert5SG",
      "pbrMetallicRoughness": {
        "baseColorTexture": {
          "index": 0
        },
        "metallicFactor": 0.0,
        "roughnessFactor": 0.6
      }
    },
    {
      "doubleSided": true,
      "name": "lambert6SG",
      "pbrMetallicRoughness": {
        "baseColorTexture": {
          "index": 0
        },
        "metallicFactor": 0.0,
        "roughnessFactor": 0.6
      }
    },
    {
      "doubleSided": true,
      "name": "lambert7SG",
      "pbrMetallicRoughness": {
        "baseColorFactor": [
          0.0,
          0.0,
          0.0,
          1.0
        ],
        "metallicFactor": 0.0,
        "roughnessFactor": 0.6
      }
    },
    {
      "doubleSided": true,
      "name": "lambert8SG",
      "pbrMetallicRoughness": {
        "baseColorTexture": {
          "index": 0
        },
        "metallicFactor": 0.0,
        "roughnessFactor": 0.6
      }
    },
    {
      "doubleSided": true,
      "name": "lambert9SG",
      "pbrMetallicRoughness": {
        "baseColorTexture": {
          "index": 0
        },
        "metallicFactor": 0.0,
        "roughnessFactor": 0.6
      }
    }
  ],
  "meshes": [
    {
      "name": "Object_0",
      "primitives": [
        {
          "attributes": {
            "NORMAL": 1,
            "POSITION": 0,
            "TEXCOORD_0": 2
          },
          "indices": 3,
          "material": 0,
          "mode": 4
        }
      ]
    },
    {
      "name": "Object_1",
      "primitives": [
        {
          "attributes": {
            "NORMAL": 5,
            "POSITION": 4,
            "TEXCOORD_0": 6
          },
          "indices": 7,
          "material": 1,
          "mode": 4
        }
      ]
    },
    {
      "name": "Object_2",
      "primitives": [
        {
          "attributes": {
            "NORMAL": 9,
            "POSITION": 8,
            "TEXCOORD_0": 10
          },
          "indices": 11,
          "material": 2,
          "mode": 4
        }
      ]
    },
    {
      "name": "Object_3",
      "primitives": [
        {
          "attributes": {
            "NORMAL": 13,
            "POSITION": 12,
            "TEXCOORD_0": 14
          },
          "indices": 15,
          "material": 3,
          "mode": 4
        }
      ]
    },
    {
      "name": "Object_4",
      "primitives": [
        {
          "attributes": {
            "NORMAL": 17,
            "POSITION": 16,
            "TEXCOORD_0": 18
          },
          "indices": 19,
          "material": 4,
          "mode": 4
        }
      ]
    },
    {
      "name": "Object_5",
      "primitives": [
        {
          "attributes": {
            "NORMAL": 21,
            "POSITION": 20,
            "TEXCOORD_0": 22
          },
          "indices": 23,
          "material": 5,
          "mode": 4
        }
      ]
    },
    {
      "name": "Object_6",
      "primitives": [
        {
          "attributes": {
            "NORMAL": 25,
            "POSITION": 24,
            "TEXCOORD_0": 26
          },
          "indices": 27,
          "material": 6,
          "mode": 4
        }
      ]
    },
    {
      "name": "Object_7",
      "primitives": [
        {
          "attributes": {
            "NORMAL": 29,
            "POSITION": 28,
            "TEXCOORD_0": 30
          },
          "indices": 31,
          "material": 7,
          "mode": 4
        }
      ]
    },
    {
      "name": "Object_8",
      "primitives": [
        {
          "attributes": {
            "NORMAL": 33,
            "POSITION": 32,
            "TEXCOORD_0": 34
          },
          "indices": 35,
          "material": 14,
          "mode": 4
        }
      ]
    },
    {
      "name": "Object_9",
      "primitives": [
        {
          "attributes": {
            "NORMAL": 37,
            "POSITION": 36,
            "TEXCOORD_0": 38
          },
          "indices": 39,
          "material": 17,
          "mode": 4
        }
      ]
    },
    {
      "name": "Object_10",
      "primitives": [
        {
          "attributes": {
            "NORMAL": 41,
            "POSITION": 40,
            "TEXCOORD_0": 42
          },
          "indices": 43,
          "material": 20,
          "mode": 4
        }
      ]
    },
    {
      "name": "Object_11",
      "primitives": [
        {
          "attributes": {
            "NORMAL": 45,
            "POSITION": 44,
            "TEXCOORD_0": 46
          },
          "indices": 47,
          "material": 21,
          "mode": 4
        }
      ]
    },
    {
      "name": "Object_12",
      "primitives": [
        {
          "attributes": {
            "NORMAL": 49,
            "POSITION": 48,
            "TEXCOORD_0": 50
          },
          "indices": 51,
          "material": 22,
          "mode": 4
        }
      ]
    },
    {
      "name": "Object_13",
      "primitives": [
        {
          "attributes": {
            "NORMAL": 53,
            "POSITION": 52,
            "TEXCOORD_0": 54
          },
          "indices": 55,
          "material": 23,
          "mode": 4
        }
      ]
    },
    {
      "name": "Object_14",
      "primitives": [
        {
          "attributes": {
            "NORMAL": 57,
            "POSITION": 56,
            "TEXCOORD_0": 58
          },
          "indices": 59,
          "material": 24,
          "mode": 4
        }
      ]
    },
    {
      "name": "Object_15",
      "primitives": [
        {
          "attributes": {
            "NORMAL": 61,
            "POSITION": 60,
            "TEXCOORD_0": 62
          },
          "indices": 63,
          "material": 25,
          "mode": 4
        }
      ]
    },
    {
      "name": "Object_16",
      "primitives": [
        {
          "attributes": {
            "NORMAL": 65,
            "POSITION": 64,
            "TEXCOORD_0": 66
          },
          "indices": 67,
          "material": 26,
          "mode": 4
        }
      ]
    },
    {
      "name": "Object_17",
      "primitives": [
        {
          "attributes": {
            "NORMAL": 69,
            "POSITION": 68,
            "TEXCOORD_0": 70
          },
          "indices": 71,
          "material": 27,
          "mode": 4
        }
      ]
    },
    {
      "name": "Object_18",
      "primitives": [
        {
          "attributes": {
            "NORMAL": 73,
            "POSITION": 72,
            "TEXCOORD_0": 74
          },
          "indices": 75,
          "material": 8,
          "mode": 4
        }
      ]
    },
    {
      "name": "Object_19",
      "primitives": [
        {
          "attributes": {
            "NORMAL": 77,
            "POSITION": 76,
            "TEXCOORD_0": 78
          },
          "indices": 79,
          "material": 9,
          "mode": 4
        }
      ]
    },
    {
      "name": "Object_20",
      "primitives": [
        {
          "attributes": {
            "NORMAL": 81,
            "POSITION": 80,
            "TEXCOORD_0": 82
          },
          "indices": 83,
          "material": 10,
          "mode": 4
        }
      ]
    },
    {
      "name": "Object_21",
      "primitives": [
        {
          "attributes": {
            "NORMAL": 85,
            "POSITION": 84,
            "TEXCOORD_0": 86
          },
          "indices": 87,
          "material": 11,
          "mode": 4
        }
      ]
    },
    {
      "name": "Object_22",
      "primitives": [
        {
          "attributes": {
            "NORMAL": 89,
            "POSITION": 88,
            "TEXCOORD_0": 90
          },
          "indices": 91,
          "material": 12,
          "mode": 4
        }
      ]
    },
    {
      "name": "Object_23",
      "primitives": [
        {
          "attributes": {
            "NORMAL": 93,
            "POSITION": 92,
            "TEXCOORD_0": 94
          },
          "indices": 95,
          "material": 13,
          "mode": 4
        }
      ]
    },
    {
      "name": "Object_24",
      "primitives": [
        {
          "attributes": {
            "NORMAL": 97,
            "POSITION": 96,
            "TEXCOORD_0": 98
          },
          "indices": 99,
          "material": 15,
          "mode": 4
        }
      ]
    },
    {
      "name": "Object_25",
      "primitives": [
        {
          "attributes": {
            "NORMAL": 101,
            "POSITION": 100,
            "TEXCOORD_0": 102
          },
          "indices": 103,
          "material": 16,
          "mode": 4
        }
      ]
    },
    {
      "name": "Object_26",
      "primitives": [
        {
          "attributes": {
            "NORMAL": 105,
            "POSITION": 104,
            "TEXCOORD_0": 106
          },
          "indices": 107,
          "material": 18,
          "mode": 4
        }
      ]
    },
    {
      "name": "Object_27",
      "primitives": [
        {
          "attributes": {
            "NORMAL": 109,
            "POSITION": 108,
            "TEXCOORD_0": 110
          },
          "indices": 111,
          "material": 19,
          "mode": 4
        }
      ]
    }
  ],
  "nodes": [
    {
      "children": [
        1
      ],
      "matrix": [
        1.0,
        0.0,
        0.0,
        0.0,
        0.0,
        2.220446049250313e-16,
        -1.0,
        0.0,
        0.0,
        1.0,
        2.220446049250313e-16,
        0.0,
        0.0,
        0.0,
        0.0,
        1.0
      ],
      "name": "Sketchfab_model"
    },
    {
      "children": [
        2,
        3,
        4,
        5,
        6,
        7,
        8,
        9,
        10,
        11,
        12,
        13,
        14,
        15,
        16,
        17,
        18,
        19,
        20,
        21,
        22,
        23,
        24,
        25,
        26,
        27,
        28,
        29
      ],
      "name": "NAVE.obj.cleaner.materialmerger.gles"
    },
    {
      "mesh": 0,
      "name": "Object_2"
    },
    {
      "mesh": 1,
      "name": "Object_3"
    },
    {
      "mesh": 2,
      "name": "Object_4"
    },
    {
      "mesh": 3,
      "name": "Object_5"
    },
    {
      "mesh": 4,
      "name": "Object_6"
    },
    {
      "mesh": 5,
      "name": "Object_7"
    },
    {
      "mesh": 6,
      "name": "Object_8"
    },
    {
      "mesh": 7,
      "name": "Object_9"
    },
    {
      "mesh": 8,
      "name": "Object_10"
    },
    {
      "mesh": 9,
      "name": "Object_11"
    },
    {
      "mesh": 10,
      "name": "Object_12"
    },
    {
      "mesh": 11,
      "name": "Object_13"
    },
    {
      "mesh": 12,
      "name": "Object_14"
    },
    {
      "mesh": 13,
      "name": "Object_15"
    },
    {
      "mesh": 14,
      "name": "Object_16"
    },
    {
      "mesh": 15,
      "name": "Object_17"
    },
    {
      "mesh": 16,
      "name": "Object_18"
    },
    {
      "mesh": 17,
      "name": "Object_19"
    },
    {
      "mesh": 18,
      "name": "Object_20"
    },
    {
      "mesh": 19,
      "name": "Object_21"
    },
    {
      "mesh": 20,
      "name": "Object_22"
    },
    {
      "mesh": 21,
      "name": "Object_23"
    },
    {
      "mesh": 22,
      "name": "Object_24"
    },
    {
      "mesh": 23,
      "name": "Object_25"
    },
    {
      "mesh": 24,
      "name": "Object_26"
    },
    {
      "mesh": 25,
      "name": "Object_27"
    },
    {
      "mesh": 26,
      "name": "Object_28"
    },
    {
      "mesh": 27,
      "name": "Object_29"
    }
  ],
  "samplers": [
    {
      "magFilter": 9729,
      "minFilter": 9987,
      "wrapS": 10497,
      "wrapT": 10497
    }
  ],
  "scene": 0,
  "scenes": [
    {
      "name": "Sketchfab_Scene",
      "nodes": [
        0
      ]
    }
  ],
  "textures": [
    {
      "sampler": 0,
      "source": 0
    },
    {
      "sampler": 0,
      "source": 1
    },
    {
      "sampler": 0,
      "source": 2
    },
    {
      "sampler": 0,
      "source": 3
    },
    {
      "sampler": 0,
      "source": 4
    }
  ]
}
